<svg width="1321" height="942" viewBox="0 0 1321 942" fill="none" xmlns="http://www.w3.org/2000/svg">
<path d="M102.741 211.182V393H80.7244V234.264H79.6591L35.2699 263.739V241.366L80.7244 211.182H102.741ZM175.895 368.142L174.474 377.73C173.468 384.477 171.929 391.698 169.858 399.392C167.846 407.086 165.745 414.336 163.555 421.143C161.365 427.949 159.56 433.365 158.139 437.389H142.159C142.929 433.601 143.935 428.6 145.178 422.386C146.42 416.171 147.663 409.217 148.906 401.523C150.208 393.888 151.274 386.075 152.102 378.085L153.168 368.142H175.895ZM284.671 393V377.02L344.685 311.324C351.728 303.63 357.528 296.942 362.085 291.26C366.643 285.519 370.016 280.133 372.206 275.102C374.455 270.012 375.58 264.686 375.58 259.122C375.58 252.73 374.041 247.196 370.963 242.521C367.945 237.845 363.802 234.235 358.534 231.69C353.267 229.145 347.348 227.872 340.779 227.872C333.795 227.872 327.699 229.322 322.49 232.222C317.341 235.063 313.346 239.058 310.505 244.207C307.723 249.357 306.333 255.393 306.333 262.318H285.381C285.381 251.665 287.837 242.313 292.749 234.264C297.662 226.215 304.35 219.941 312.813 215.443C321.336 210.945 330.895 208.696 341.489 208.696C352.142 208.696 361.582 210.945 369.809 215.443C378.036 219.941 384.487 226.008 389.163 233.643C393.838 241.278 396.176 249.771 396.176 259.122C396.176 265.81 394.963 272.35 392.536 278.742C390.169 285.075 386.026 292.148 380.107 299.96C374.248 307.714 366.11 317.183 355.693 328.369L314.855 372.048V373.469H399.372V393H284.671ZM467.643 368.142L466.222 377.73C465.216 384.477 463.677 391.698 461.606 399.392C459.594 407.086 457.493 414.336 455.303 421.143C453.113 427.949 451.308 433.365 449.887 437.389H433.907C434.677 433.601 435.683 428.6 436.926 422.386C438.169 416.171 439.411 409.217 440.654 401.523C441.956 393.888 443.022 386.075 443.85 378.085L444.916 368.142H467.643ZM637.853 395.486C626.135 395.486 615.688 393.473 606.515 389.449C597.4 385.424 590.15 379.831 584.764 372.67C579.437 365.449 576.537 357.074 576.064 347.545H598.436C598.909 353.405 600.922 358.465 604.473 362.727C608.024 366.929 612.67 370.184 618.411 372.492C624.152 374.8 630.514 375.955 637.498 375.955C645.311 375.955 652.235 374.593 658.272 371.871C664.309 369.148 669.044 365.36 672.477 360.507C675.91 355.654 677.626 350.031 677.626 343.639C677.626 336.951 675.969 331.062 672.654 325.972C669.34 320.823 664.487 316.799 658.095 313.898C651.703 310.998 643.89 309.548 634.657 309.548H620.098V290.017H634.657C641.878 290.017 648.211 288.715 653.656 286.111C659.16 283.507 663.451 279.837 666.529 275.102C669.666 270.367 671.234 264.804 671.234 258.412C671.234 252.257 669.873 246.9 667.15 242.343C664.428 237.786 660.581 234.235 655.609 231.69C650.697 229.145 644.896 227.872 638.208 227.872C631.935 227.872 626.016 229.026 620.453 231.335C614.949 233.584 610.45 236.868 606.958 241.189C603.467 245.45 601.573 250.599 601.277 256.636H579.97C580.325 247.107 583.195 238.762 588.581 231.601C593.967 224.38 601.01 218.758 609.711 214.733C618.47 210.708 628.088 208.696 638.564 208.696C649.809 208.696 659.456 210.975 667.505 215.532C675.555 220.03 681.739 225.978 686.06 233.376C690.381 240.775 692.541 248.765 692.541 257.347C692.541 267.586 689.848 276.316 684.462 283.536C679.135 290.757 671.885 295.758 662.711 298.54V299.96C674.193 301.854 683.16 306.737 689.611 314.609C696.062 322.421 699.288 332.098 699.288 343.639C699.288 353.523 696.595 362.401 691.209 370.273C685.882 378.085 678.603 384.241 669.37 388.739C660.137 393.237 649.631 395.486 637.853 395.486ZM761.588 368.142L760.168 377.73C759.162 384.477 757.623 391.698 755.551 399.392C753.539 407.086 751.438 414.336 749.248 421.143C747.058 427.949 745.253 433.365 743.833 437.389H727.852C728.622 433.601 729.628 428.6 730.871 422.386C732.114 416.171 733.357 409.217 734.6 401.523C735.902 393.888 736.967 386.075 737.796 378.085L738.861 368.142H761.588ZM866.103 355.713V337.602L946.003 211.182H959.142V239.236H950.265L889.895 334.761V336.182H997.495V355.713H866.103ZM951.685 393V350.209V341.775V211.182H972.637V393H951.685Z" fill="#006CA9"/>
<path d="M292.821 881V865.02L352.835 799.324C359.878 791.63 365.679 784.942 370.236 779.26C374.793 773.519 378.167 768.133 380.357 763.102C382.606 758.012 383.73 752.686 383.73 747.122C383.73 740.73 382.191 735.196 379.114 730.521C376.095 725.845 371.952 722.235 366.685 719.69C361.417 717.145 355.499 715.872 348.929 715.872C341.945 715.872 335.849 717.322 330.641 720.222C325.491 723.063 321.496 727.058 318.656 732.207C315.874 737.357 314.483 743.393 314.483 750.318H293.531C293.531 739.665 295.987 730.313 300.9 722.264C305.812 714.215 312.5 707.941 320.964 703.443C329.487 698.945 339.045 696.696 349.639 696.696C360.293 696.696 369.733 698.945 377.96 703.443C386.186 707.941 392.638 714.008 397.313 721.643C401.989 729.278 404.327 737.771 404.327 747.122C404.327 753.81 403.113 760.35 400.687 766.742C398.319 773.075 394.176 780.148 388.258 787.96C382.398 795.714 374.26 805.183 363.844 816.369L323.006 860.048V861.469H407.523V881H292.821ZM475.793 856.142L474.373 865.73C473.367 872.477 471.828 879.698 469.756 887.392C467.744 895.086 465.643 902.336 463.453 909.143C461.263 915.949 459.458 921.365 458.038 925.389H442.058C442.827 921.601 443.833 916.6 445.076 910.386C446.319 904.171 447.562 897.217 448.805 889.523C450.107 881.888 451.172 874.075 452.001 866.085L453.066 856.142H475.793ZM646.004 883.486C634.285 883.486 623.839 881.473 614.665 877.449C605.55 873.424 598.3 867.831 592.914 860.67C587.588 853.449 584.687 845.074 584.214 835.545H606.586C607.06 841.405 609.072 846.465 612.623 850.727C616.174 854.929 620.82 858.184 626.561 860.492C632.302 862.8 638.665 863.955 645.649 863.955C653.461 863.955 660.386 862.593 666.423 859.871C672.46 857.148 677.195 853.36 680.627 848.507C684.06 843.654 685.776 838.031 685.776 831.639C685.776 824.951 684.119 819.062 680.805 813.972C677.49 808.823 672.637 804.799 666.245 801.898C659.853 798.998 652.041 797.548 642.808 797.548H628.248V778.017H642.808C650.028 778.017 656.361 776.715 661.806 774.111C667.311 771.507 671.602 767.837 674.679 763.102C677.816 758.367 679.384 752.804 679.384 746.412C679.384 740.257 678.023 734.9 675.301 730.343C672.578 725.786 668.731 722.235 663.759 719.69C658.847 717.145 653.047 715.872 646.359 715.872C640.085 715.872 634.167 717.026 628.603 719.335C623.099 721.584 618.601 724.868 615.109 729.189C611.617 733.45 609.723 738.599 609.427 744.636H588.12C588.475 735.107 591.346 726.762 596.732 719.601C602.118 712.38 609.161 706.758 617.861 702.733C626.62 698.708 636.238 696.696 646.714 696.696C657.959 696.696 667.606 698.975 675.656 703.532C683.705 708.03 689.89 713.978 694.21 721.376C698.531 728.775 700.691 736.765 700.691 745.347C700.691 755.586 697.998 764.316 692.612 771.536C687.286 778.757 680.035 783.758 670.862 786.54V787.96C682.344 789.854 691.31 794.737 697.762 802.609C704.213 810.421 707.438 820.098 707.438 831.639C707.438 841.523 704.745 850.401 699.36 858.273C694.033 866.085 686.753 872.241 677.52 876.739C668.287 881.237 657.782 883.486 646.004 883.486ZM769.739 856.142L768.318 865.73C767.312 872.477 765.773 879.698 763.702 887.392C761.689 895.086 759.588 902.336 757.398 909.143C755.209 915.949 753.403 921.365 751.983 925.389H736.003C736.772 921.601 737.778 916.6 739.021 910.386C740.264 904.171 741.507 897.217 742.75 889.523C744.052 881.888 745.117 874.075 745.946 866.085L747.011 856.142H769.739ZM874.253 843.713V825.602L954.154 699.182H967.293V727.236H958.415L898.046 822.761V824.182H1005.65V843.713H874.253ZM959.835 881V838.209V829.775V699.182H980.787V881H959.835ZM1061.97 856.142L1060.55 865.73C1059.55 872.477 1058.01 879.698 1055.94 887.392C1053.93 895.086 1051.82 902.336 1049.63 909.143C1047.44 915.949 1045.64 921.365 1044.22 925.389H1028.24C1029.01 921.601 1030.01 916.6 1031.26 910.386C1032.5 904.171 1033.74 897.217 1034.99 889.523C1036.29 881.888 1037.35 874.075 1038.18 866.085L1039.25 856.142H1061.97ZM1234.67 699.182V881H1212.65V722.264H1211.59L1167.2 751.739V729.366L1212.65 699.182H1234.67Z" fill="#FA8F00"/>
<line x1="84" y1="7.5" x2="1244" y2="7.5" stroke="#737370" stroke-width="15"/>
<line x1="91.5" y1="15" x2="91.5" y2="151" stroke="#737370" stroke-width="15"/>
<path d="M1231.2 156.303C1234.13 159.232 1238.87 159.232 1241.8 156.303L1289.53 108.574C1292.46 105.645 1292.46 100.896 1289.53 97.967C1286.6 95.0381 1281.86 95.0381 1278.93 97.967L1236.5 140.393L1194.07 97.967C1191.14 95.0381 1186.4 95.0381 1183.47 97.967C1180.54 100.896 1180.54 105.645 1183.47 108.574L1231.2 156.303ZM1229 15V151H1244V15H1229Z" fill="#737370"/>
<rect x="1154.5" y="177.5" width="164" height="762" stroke="#737370" stroke-width="5"/>
<rect x="2.5" y="177.5" width="164" height="762" stroke="#737370" stroke-width="5"/>
</svg>
